<?xml version="1.0" encoding="UTF-8" standalone="no"?>
<!-- Created with Inkscape (http://www.inkscape.org/) -->

<svg
   xmlns:dc="http://purl.org/dc/elements/1.1/"
   xmlns:cc="http://creativecommons.org/ns#"
   xmlns:rdf="http://www.w3.org/1999/02/22-rdf-syntax-ns#"
   xmlns:svg="http://www.w3.org/2000/svg"
   xmlns="http://www.w3.org/2000/svg"
   xmlns:sodipodi="http://sodipodi.sourceforge.net/DTD/sodipodi-0.dtd"
   xmlns:inkscape="http://www.inkscape.org/namespaces/inkscape"
   width="1024"
   height="1024"
   id="svg2"
   version="1.1"
   inkscape:version="0.91pre2+osxmenu r12816"
   sodipodi:docname="camera.svg"
   inkscape:export-filename="/Users/jameshudson/projects/PostcardCreatorAndroid/app/src/main/res/drawable/camera.png"
   inkscape:export-xdpi="5.625"
   inkscape:export-ydpi="5.625">
  <defs
     id="defs4" />
  <sodipodi:namedview
     id="base"
     pagecolor="#9e9e9e"
     bordercolor="#666666"
     borderopacity="1.0"
     inkscape:pageopacity="0"
     inkscape:pageshadow="2"
     inkscape:zoom="0.58410482"
     inkscape:cx="340.82125"
     inkscape:cy="563.30936"
     inkscape:document-units="px"
     inkscape:current-layer="svg2"
     showgrid="false"
     inkscape:window-width="1381"
     inkscape:window-height="793"
     inkscape:window-x="55"
     inkscape:window-y="23"
     inkscape:window-maximized="0" />
  <metadata
     id="metadata7">
    <rdf:RDF>
      <cc:Work
         rdf:about="">
        <dc:format>image/svg+xml</dc:format>
        <dc:type
           rdf:resource="http://purl.org/dc/dcmitype/StillImage" />
        <dc:title></dc:title>
      </cc:Work>
    </rdf:RDF>
  </metadata>
  <g
     inkscape:label="Layer 1"
     inkscape:groupmode="layer"
     id="layer1" />
  <path
     style="opacity:1;fill:#ffffff;fill-opacity:1;stroke:none;stroke-width:16.5;stroke-linecap:round;stroke-linejoin:miter;stroke-miterlimit:4;stroke-dasharray:none;stroke-dashoffset:0;stroke-opacity:1"
     d="M 367.18945 155.23633 C 337.95342 155.23633 314.41797 178.77374 314.41797 208.00977 L 314.41797 316.36523 L 89.685547 316.36523 C 65.666136 316.36523 46.330078 335.70324 46.330078 359.72266 L 46.330078 864.22656 C 46.330078 888.24597 65.666136 907.58203 89.685547 907.58203 L 910.3457 907.58203 C 934.36511 907.58203 953.70117 888.24597 953.70117 864.22656 L 953.70117 359.72266 C 953.70117 335.70324 934.36511 316.36523 910.3457 316.36523 L 710.36133 316.36523 L 710.36133 208.00977 C 710.36133 178.77374 686.82392 155.23633 657.58789 155.23633 L 367.18945 155.23633 z M 512 403.11719 C 634.00518 403.11719 733.12695 503.7402 733.12695 626.81055 C 733.12695 749.8809 634.00518 850.50586 512 850.50586 C 389.99482 850.50586 290.87305 749.8809 290.87305 626.81055 C 290.87305 503.7402 389.99482 403.11719 512 403.11719 z M 512 453.31641 C 417.48033 453.31641 341.07422 530.51947 341.07422 626.81055 C 341.07422 723.10162 417.48033 800.30469 512 800.30469 C 606.51967 800.30469 682.92578 723.10162 682.92578 626.81055 C 682.92578 530.51947 606.51967 453.31641 512 453.31641 z "
     id="rect4339" />
</svg>
