<?xml version="1.0" encoding="UTF-8" standalone="no"?>
<!-- Created with Inkscape (http://www.inkscape.org/) -->

<svg
   xmlns:dc="http://purl.org/dc/elements/1.1/"
   xmlns:cc="http://creativecommons.org/ns#"
   xmlns:rdf="http://www.w3.org/1999/02/22-rdf-syntax-ns#"
   xmlns:svg="http://www.w3.org/2000/svg"
   xmlns="http://www.w3.org/2000/svg"
   xmlns:sodipodi="http://sodipodi.sourceforge.net/DTD/sodipodi-0.dtd"
   xmlns:inkscape="http://www.inkscape.org/namespaces/inkscape"
   width="256"
   height="256"
   id="svg2"
   version="1.1"
   inkscape:version="0.91pre2+osxmenu r12816"
   viewBox="0 0 744.09448 1052.3622"
   sodipodi:docname="padlock.svg"
   inkscape:export-filename="/Volumes/DiskImage/ivwizard/ivwizard/ivwizard/images/buyable_small@3x.png"
   inkscape:export-xdpi="50.625"
   inkscape:export-ydpi="50.625">
  <defs
     id="defs4">
    <marker
       inkscape:stockid="Arrow1Lstart"
       orient="auto"
       refY="0.0"
       refX="0.0"
       id="marker4624"
       style="overflow:visible"
       inkscape:isstock="true">
      <path
         id="path4626"
         d="M 0.0,0.0 L 5.0,-5.0 L -12.5,0.0 L 5.0,5.0 L 0.0,0.0 z "
         style="fill-rule:evenodd;stroke:#000000;stroke-width:1pt;stroke-opacity:1;fill:#000000;fill-opacity:1"
         transform="scale(0.8) translate(12.5,0)" />
    </marker>
    <marker
       inkscape:stockid="Arrow1Lstart"
       orient="auto"
       refY="0.0"
       refX="0.0"
       id="marker4602"
       style="overflow:visible"
       inkscape:isstock="true">
      <path
         id="path4604"
         d="M 0.0,0.0 L 5.0,-5.0 L -12.5,0.0 L 5.0,5.0 L 0.0,0.0 z "
         style="fill-rule:evenodd;stroke:#000000;stroke-width:1pt;stroke-opacity:1;fill:#000000;fill-opacity:1"
         transform="scale(0.8) translate(12.5,0)" />
    </marker>
    <marker
       inkscape:stockid="Arrow1Lstart"
       orient="auto"
       refY="0.0"
       refX="0.0"
       id="Arrow1Lstart"
       style="overflow:visible"
       inkscape:isstock="true">
      <path
         id="path4332"
         d="M 0.0,0.0 L 5.0,-5.0 L -12.5,0.0 L 5.0,5.0 L 0.0,0.0 z "
         style="fill-rule:evenodd;stroke:#000000;stroke-width:1pt;stroke-opacity:1;fill:#000000;fill-opacity:1"
         transform="scale(0.8) translate(12.5,0)" />
    </marker>
  </defs>
  <sodipodi:namedview
     id="base"
     pagecolor="#ffffff"
     bordercolor="#666666"
     borderopacity="1.0"
     inkscape:pageopacity="0.0"
     inkscape:pageshadow="2"
     inkscape:zoom="0.93643126"
     inkscape:cx="203.09775"
     inkscape:cy="110.33814"
     inkscape:document-units="px"
     inkscape:current-layer="svg2"
     showgrid="false"
     inkscape:window-width="1929"
     inkscape:window-height="925"
     inkscape:window-x="1550"
     inkscape:window-y="180"
     inkscape:window-maximized="0" />
  <metadata
     id="metadata7">
    <rdf:RDF>
      <cc:Work
         rdf:about="">
        <dc:format>image/svg+xml</dc:format>
        <dc:type
           rdf:resource="http://purl.org/dc/dcmitype/StillImage" />
      </cc:Work>
    </rdf:RDF>
  </metadata>
  <g
     inkscape:label="Layer 1"
     inkscape:groupmode="layer"
     id="layer1" />
  <g
     id="g4797">
    <path
       style="opacity:1;fill:#000000;fill-opacity:1;stroke:none;stroke-width:0.80800003;stroke-linejoin:round;stroke-miterlimit:4;stroke-dasharray:none;stroke-opacity:1"
       d="M 128 3.6152344 C 83.340672 3.6152344 49.246094 44.593634 49.246094 92.09375 C 49.246094 94.102649 49.329031 96.095164 49.449219 98.078125 L 30.015625 98.078125 L 30.015625 252.16016 L 225.98438 252.16016 L 225.98438 98.078125 L 206.55078 98.078125 C 206.67097 96.095164 206.75391 94.102649 206.75391 92.09375 C 206.75391 44.593634 172.65933 3.6152344 128 3.6152344 z M 128 35.919922 C 152.48928 35.919922 174.44922 59.704853 174.44922 92.09375 C 174.44922 94.123519 174.36303 96.119672 174.19531 98.078125 L 81.804688 98.078125 C 81.636973 96.119672 81.548828 94.123519 81.548828 92.09375 C 81.548828 59.704853 103.51072 35.919922 128 35.919922 z M 128 146.50586 A 18.699258 18.699258 0 0 1 146.69922 165.20508 A 18.699258 18.699258 0 0 1 137.72266 181.16016 L 137.72266 207.83984 L 118.27734 207.83984 L 118.27734 181.15039 A 18.699258 18.699258 0 0 1 109.30078 165.20508 A 18.699258 18.699258 0 0 1 128 146.50586 z "
       transform="matrix(4.1107898,0,0,4.1107898,-154.13386,0)"
       id="rect4320" />
  </g>
  <g
     id="g4793" />
</svg>
