<?xml version="1.0" encoding="UTF-8" standalone="no"?>
<!-- Created with Inkscape (http://www.inkscape.org/) -->

<svg
   xmlns:dc="http://purl.org/dc/elements/1.1/"
   xmlns:cc="http://creativecommons.org/ns#"
   xmlns:rdf="http://www.w3.org/1999/02/22-rdf-syntax-ns#"
   xmlns:svg="http://www.w3.org/2000/svg"
   xmlns="http://www.w3.org/2000/svg"
   xmlns:sodipodi="http://sodipodi.sourceforge.net/DTD/sodipodi-0.dtd"
   xmlns:inkscape="http://www.inkscape.org/namespaces/inkscape"
   width="256"
   height="256"
   id="svg2"
   version="1.1"
   inkscape:version="0.91pre2+osxmenu r12816"
   sodipodi:docname="recharge.svg"
   inkscape:export-filename="/Users/jameshudson/projects/get-answers-ios/get-answers/get-answers/Assets.xcassets/share.imageset/send.png"
   inkscape:export-xdpi="3.6914062"
   inkscape:export-ydpi="3.6914062">
  <defs
     id="defs4">
    <marker
       inkscape:stockid="Club"
       orient="auto"
       refY="0"
       refX="0"
       id="Club"
       style="overflow:visible"
       inkscape:isstock="true">
      <path
         id="path4570"
         d="m -1.5971367,-7.0977635 c -1.8892507,0 -3.426382,1.5371314 -3.426382,3.4263822 0,0.6566798 0.2383531,1.2269257 0.5594092,1.7481542 -0.038751,0.032111 -0.079672,0.058463 -0.1165436,0.093235 -0.6224234,-0.8549928 -1.5893983,-1.4451409 -2.7271199,-1.4451409 -1.8892515,-1e-7 -3.426382,1.5371314 -3.426382,3.42638214 0,1.88925076 1.5371305,3.42638216 3.426382,3.42638216 0.9934462,0 1.868619,-0.4420611 2.4940326,-1.1188187 -0.124687,0.3548915 -0.2097783,0.7214874 -0.2097783,1.1188187 0,1.8892506 1.5371313,3.4263822 3.426382,3.4263822 1.88925064,0 3.4263821,-1.5371316 3.4263821,-3.4263822 0,-0.7933959 -0.3155586,-1.4938285 -0.7691878,-2.0744763 C 2.4152718,1.7663868 3.7718375,2.2973711 4.7661444,3.8340272 4.0279463,3.0958289 3.5540908,1.7534117 3.5540908,-0.05852936 l -0.6293354,-0.04661745 0.5827179,-0.0233087 c 0,-1.81194109 0.4505466,-3.15435829 1.188745,-3.89255659 -0.9590906,1.4822308 -2.2571634,2.0263625 -3.5662345,2.3075635 0.4041964,-0.5619092 0.6992616,-1.213407 0.6992616,-1.9579327 0,-1.8892506 -1.53713146,-3.4263822 -3.4263821,-3.4263822 z"
         style="fill:#ffffff;fill-opacity:1;fill-rule:evenodd;stroke:#ffffff;stroke-width:0.74587913pt;stroke-opacity:1"
         transform="scale(0.6,0.6)"
         inkscape:connector-curvature="0" />
    </marker>
    <marker
       inkscape:stockid="Arrow1Lstart"
       orient="auto"
       refY="0"
       refX="0"
       id="marker10879"
       style="overflow:visible"
       inkscape:isstock="true">
      <path
         id="path10881"
         d="M 0,0 5,-5 -12.5,0 5,5 0,0 Z"
         style="fill:#ffffff;fill-opacity:1;fill-rule:evenodd;stroke:#ffffff;stroke-width:1pt;stroke-opacity:1"
         transform="matrix(0.8,0,0,0.8,10,0)"
         inkscape:connector-curvature="0" />
    </marker>
    <marker
       inkscape:stockid="Arrow1Lstart"
       orient="auto"
       refY="0"
       refX="0"
       id="marker4971"
       style="overflow:visible"
       inkscape:isstock="true">
      <path
         id="path4973"
         d="M 0,0 5,-5 -12.5,0 5,5 0,0 Z"
         style="fill:#ffffff;fill-opacity:1;fill-rule:evenodd;stroke:#ffffff;stroke-width:1pt;stroke-opacity:1"
         transform="matrix(0.8,0,0,0.8,10,0)"
         inkscape:connector-curvature="0" />
    </marker>
    <marker
       inkscape:stockid="Arrow1Lstart"
       orient="auto"
       refY="0"
       refX="0"
       id="marker4803"
       style="overflow:visible"
       inkscape:isstock="true">
      <path
         id="path4805"
         d="M 0,0 5,-5 -12.5,0 5,5 0,0 Z"
         style="fill:#ffffff;fill-opacity:1;fill-rule:evenodd;stroke:#ffffff;stroke-width:1pt;stroke-opacity:1"
         transform="matrix(0.8,0,0,0.8,10,0)"
         inkscape:connector-curvature="0" />
    </marker>
    <marker
       inkscape:stockid="Arrow1Lstart"
       orient="auto"
       refY="0"
       refX="0"
       id="marker4635"
       style="overflow:visible"
       inkscape:isstock="true">
      <path
         id="path4637"
         d="M 0,0 5,-5 -12.5,0 5,5 0,0 Z"
         style="fill:#ffffff;fill-opacity:1;fill-rule:evenodd;stroke:#ffffff;stroke-width:1pt;stroke-opacity:1"
         transform="matrix(0.8,0,0,0.8,10,0)"
         inkscape:connector-curvature="0" />
    </marker>
    <marker
       inkscape:stockid="Arrow1Lstart"
       orient="auto"
       refY="0"
       refX="0"
       id="Arrow1Lstart"
       style="overflow:visible"
       inkscape:isstock="true">
      <path
         id="path4341"
         d="M 0,0 5,-5 -12.5,0 5,5 0,0 Z"
         style="fill:#ffffff;fill-opacity:1;fill-rule:evenodd;stroke:#ffffff;stroke-width:1pt;stroke-opacity:1"
         transform="matrix(0.8,0,0,0.8,10,0)"
         inkscape:connector-curvature="0" />
    </marker>
  </defs>
  <sodipodi:namedview
     id="base"
     pagecolor="#ffffff"
     bordercolor="#666666"
     borderopacity="1.0"
     inkscape:pageopacity="0.0"
     inkscape:pageshadow="2"
     inkscape:zoom="1.0888461"
     inkscape:cx="-110.20683"
     inkscape:cy="126.26015"
     inkscape:document-units="px"
     inkscape:current-layer="svg2"
     showgrid="false"
     inkscape:window-width="1381"
     inkscape:window-height="793"
     inkscape:window-x="25"
     inkscape:window-y="41"
     inkscape:window-maximized="0"
     inkscape:snap-grids="true"
     inkscape:snap-to-guides="false" />
  <metadata
     id="metadata7">
    <rdf:RDF>
      <cc:Work
         rdf:about="">
        <dc:format>image/svg+xml</dc:format>
        <dc:type
           rdf:resource="http://purl.org/dc/dcmitype/StillImage" />
        <dc:title />
      </cc:Work>
    </rdf:RDF>
  </metadata>
  <g
     inkscape:label="Layer 1"
     inkscape:groupmode="layer"
     id="layer1" />
  <rect
     style="opacity:1;fill:none;fill-opacity:1;stroke:#ffffff;stroke-width:16;stroke-linecap:butt;stroke-linejoin:miter;stroke-miterlimit:4;stroke-dasharray:none;stroke-dashoffset:0;stroke-opacity:1"
     id="rect4333"
     width="136.67697"
     height="221.50356"
     x="54.35783"
     y="13.92433"
     inkscape:export-filename="/Users/jameshudson/projects/postcarder/images/send.png"
     inkscape:export-xdpi="5.7882876"
     inkscape:export-ydpi="5.7882876" />
  <path
     style="opacity:1;fill:none;fill-rule:evenodd;stroke:#ffffff;stroke-width:16;stroke-linecap:square;stroke-linejoin:round;stroke-miterlimit:4;stroke-dasharray:none;stroke-dashoffset:0;stroke-opacity:1"
     d="M 79.046995,81.997953 122.38255,37.187598 165.7181,81.997953"
     id="path11065"
     inkscape:connector-curvature="0"
     inkscape:export-filename="/Users/jameshudson/projects/postcarder/images/send.png"
     inkscape:export-xdpi="5.7882876"
     inkscape:export-ydpi="5.7882876"
     sodipodi:nodetypes="ccc" />
  <path
     inkscape:export-ydpi="5.7882876"
     inkscape:export-xdpi="5.7882876"
     inkscape:export-filename="/Users/jameshudson/projects/postcarder/images/send.png"
     inkscape:connector-curvature="0"
     id="path6669"
     d="M 122.53258,202.79124 122.38255,42.01933"
     style="opacity:1;fill:none;fill-rule:evenodd;stroke:#ffffff;stroke-width:16;stroke-linecap:square;stroke-linejoin:round;stroke-miterlimit:4;stroke-dasharray:none;stroke-dashoffset:0;stroke-opacity:1"
     sodipodi:nodetypes="cc" />
</svg>
