<?xml version="1.0" encoding="UTF-8" standalone="no"?>
<!-- Created with Inkscape (http://www.inkscape.org/) -->

<svg
   xmlns:dc="http://purl.org/dc/elements/1.1/"
   xmlns:cc="http://creativecommons.org/ns#"
   xmlns:rdf="http://www.w3.org/1999/02/22-rdf-syntax-ns#"
   xmlns:svg="http://www.w3.org/2000/svg"
   xmlns="http://www.w3.org/2000/svg"
   xmlns:sodipodi="http://sodipodi.sourceforge.net/DTD/sodipodi-0.dtd"
   xmlns:inkscape="http://www.inkscape.org/namespaces/inkscape"
   width="256"
   height="256"
   id="svg2"
   version="1.1"
   inkscape:version="0.91pre2+osxmenu r12816"
   viewBox="0 0 744.09448 1052.3622"
   sodipodi:docname="settings.svg"
   inkscape:export-filename="/Users/jameshudson/projects/get-answers-ios/get-answers/get-answers/Assets.xcassets/profile.imageset/profile.png"
   inkscape:export-xdpi="14.765625"
   inkscape:export-ydpi="14.765625">
  <defs
     id="defs4">
    <marker
       inkscape:stockid="Arrow1Lstart"
       orient="auto"
       refY="0"
       refX="0"
       id="marker4624"
       style="overflow:visible"
       inkscape:isstock="true">
      <path
         id="path4626"
         d="M 0,0 5,-5 -12.5,0 5,5 0,0 Z"
         style="fill:#000000;fill-opacity:1;fill-rule:evenodd;stroke:#ffffff;stroke-width:1pt;stroke-opacity:1"
         transform="matrix(0.8,0,0,0.8,10,0)"
         inkscape:connector-curvature="0" />
    </marker>
    <marker
       inkscape:stockid="Arrow1Lstart"
       orient="auto"
       refY="0"
       refX="0"
       id="marker4602"
       style="overflow:visible"
       inkscape:isstock="true">
      <path
         id="path4604"
         d="M 0,0 5,-5 -12.5,0 5,5 0,0 Z"
         style="fill:#000000;fill-opacity:1;fill-rule:evenodd;stroke:#ffffff;stroke-width:1pt;stroke-opacity:1"
         transform="matrix(0.8,0,0,0.8,10,0)"
         inkscape:connector-curvature="0" />
    </marker>
    <marker
       inkscape:stockid="Arrow1Lstart"
       orient="auto"
       refY="0"
       refX="0"
       id="Arrow1Lstart"
       style="overflow:visible"
       inkscape:isstock="true">
      <path
         id="path4332"
         d="M 0,0 5,-5 -12.5,0 5,5 0,0 Z"
         style="fill:#000000;fill-opacity:1;fill-rule:evenodd;stroke:#ffffff;stroke-width:1pt;stroke-opacity:1"
         transform="matrix(0.8,0,0,0.8,10,0)"
         inkscape:connector-curvature="0" />
    </marker>
  </defs>
  <sodipodi:namedview
     id="base"
     pagecolor="#4078bb"
     bordercolor="#666666"
     borderopacity="1.0"
     inkscape:pageopacity="0"
     inkscape:pageshadow="2"
     inkscape:zoom="0.8339785"
     inkscape:cx="29.192524"
     inkscape:cy="87.852967"
     inkscape:document-units="px"
     inkscape:current-layer="svg2"
     showgrid="true"
     inkscape:window-width="1440"
     inkscape:window-height="791"
     inkscape:window-x="29"
     inkscape:window-y="46"
     inkscape:window-maximized="0"
     showguides="true"
     inkscape:snap-to-guides="false"
     inkscape:snap-grids="false"
     inkscape:snap-others="false">
    <inkscape:grid
       type="xygrid"
       id="grid4335" />
  </sodipodi:namedview>
  <metadata
     id="metadata7">
    <rdf:RDF>
      <cc:Work
         rdf:about="">
        <dc:format>image/svg+xml</dc:format>
        <dc:type
           rdf:resource="http://purl.org/dc/dcmitype/StillImage" />
        <dc:title></dc:title>
      </cc:Work>
    </rdf:RDF>
  </metadata>
  <g
     inkscape:label="Layer 1"
     inkscape:groupmode="layer"
     id="layer1" />
  <g
     id="g4793"
     style="stroke:#ffffff;stroke-opacity:1;stroke-width:65.7726375;stroke-miterlimit:4;stroke-dasharray:none" />
  <circle
     style="opacity:1;fill:#675a27;fill-opacity:1;stroke:#ffffff;stroke-width:65.7726375;stroke-linecap:round;stroke-linejoin:round;stroke-miterlimit:4;stroke-dasharray:none;stroke-dashoffset:0;stroke-opacity:1"
     id="path4358"
     cy="526.18109"
     cx="372.04724"
     inkscape:export-filename="/Users/jameshudson/customer/travelbuddy-ios/Travel Buddy/Travel Buddy/images/path4358.png"
     inkscape:export-xdpi="77.242722"
     inkscape:export-ydpi="77.242722"
     r="0" />
  <path
     style="color:#000000;font-style:normal;font-variant:normal;font-weight:normal;font-stretch:normal;font-size:medium;line-height:normal;font-family:sans-serif;text-indent:0;text-align:start;text-decoration:none;text-decoration-line:none;text-decoration-style:solid;text-decoration-color:#000000;letter-spacing:normal;word-spacing:normal;text-transform:none;direction:ltr;block-progression:tb;writing-mode:lr-tb;baseline-shift:baseline;text-anchor:start;clip-rule:nonzero;display:inline;overflow:visible;visibility:visible;opacity:1;isolation:auto;mix-blend-mode:normal;color-interpolation:sRGB;color-interpolation-filters:linearRGB;solid-color:#000000;solid-opacity:1;fill:#ffffff;fill-opacity:1;fill-rule:nonzero;stroke:#ffffff;stroke-width:65.77263641;stroke-linecap:butt;stroke-linejoin:round;stroke-miterlimit:4;stroke-dasharray:none;stroke-dashoffset:0;stroke-opacity:1;color-rendering:auto;image-rendering:auto;shape-rendering:auto;text-rendering:auto;enable-background:accumulate"
     d="m 159.59794,54.422551 0,59.786189 c -64.609643,9.97514 -121.416772,44.153 -160.847471,92.87409 l -51.783894,-29.89798 -39.31239,68.09337 51.541027,29.75832 c -11.314533,28.87254 -17.598825,60.22274 -17.598804,93.00401 -2.1e-5,32.78105 6.284271,64.13124 17.598804,93.00377 l -51.541027,29.75843 39.31239,68.09337 51.783894,-29.89775 c 39.430699,48.72039 96.237828,82.89886 160.847471,92.87445 l 0,59.7862 78.62766,0 0,-59.7862 c 64.60969,-9.97559 121.41678,-44.15406 160.84754,-92.87445 l 51.78388,29.89775 39.31242,-68.09337 -51.5411,-29.75843 c 11.31458,-28.87253 17.5988,-60.22272 17.5988,-93.00377 0,-32.78127 -6.28422,-64.13147 -17.5988,-93.00401 l 51.5411,-29.75832 -39.31242,-68.09337 -51.78388,29.89798 C 359.64238,158.36174 302.83529,124.18388 238.2256,114.20874 l 0,-59.786189 -78.62766,0 z m 39.31385,135.400369 c 99.19833,-1e-4 178.68782,79.37049 178.68782,178.21763 0,98.84724 -79.48949,178.21774 -178.68782,178.21774 -99.198323,0 -178.687846,-79.3705 -178.687769,-178.21774 -7.7e-5,-98.84714 79.489446,-178.21773 178.687769,-178.21763 z"
     id="path3024"
     inkscape:connector-curvature="0" />
  <path
     inkscape:connector-curvature="0"
     id="path14558"
     d="m 580.24251,541.43871 2.19685,44.27189 c -47.47716,9.76071 -88.28718,37.15693 -115.69549,74.68397 l -39.44478,-20.23677 -26.60887,51.86793 39.25979,20.14226 c -7.31752,21.79598 -10.8191,45.24184 -9.61453,69.51649 1.20452,24.27448 7.01003,47.25849 16.44941,68.22295 l -37.07285,23.93011 31.61307,48.97884 37.24757,-24.0422 c 30.98881,34.6287 74.3106,57.85072 122.52084,62.86352 l 2.19685,44.2718 58.22401,-2.8891 -2.19685,-44.2719 c 47.47719,-9.761 88.28713,-37.15772 115.69557,-74.68422 l 39.44471,20.2366 26.60889,-51.86792 -39.25981,-20.14234 c 7.31756,-21.79597 10.81907,-45.24181 9.61453,-69.5163 -1.20455,-24.27465 -7.00999,-47.25867 -16.44941,-68.22315 L 832.04488,670.62115 800.4318,621.6423 763.18429,645.68467 C 732.19535,611.05541 688.87364,587.83395 640.66337,582.82142 l -2.19685,-44.27188 -58.22401,2.88917 z m 34.0873,98.81989 c 73.45674,-3.64513 135.2355,52.20822 138.86765,125.4049 3.63215,73.19674 -52.31365,134.89178 -125.7704,138.53678 -73.45669,3.6451 -135.23545,-52.20824 -138.86754,-125.40498 -3.63221,-73.19668 52.3136,-134.89173 125.77029,-138.5367 z"
     style="color:#000000;font-style:normal;font-variant:normal;font-weight:normal;font-stretch:normal;font-size:medium;line-height:normal;font-family:sans-serif;text-indent:0;text-align:start;text-decoration:none;text-decoration-line:none;text-decoration-style:solid;text-decoration-color:#000000;letter-spacing:normal;word-spacing:normal;text-transform:none;direction:ltr;block-progression:tb;writing-mode:lr-tb;baseline-shift:baseline;text-anchor:start;clip-rule:nonzero;display:inline;overflow:visible;visibility:visible;opacity:1;isolation:auto;mix-blend-mode:normal;color-interpolation:sRGB;color-interpolation-filters:linearRGB;solid-color:#000000;solid-opacity:1;fill:#ffffff;fill-opacity:1;fill-rule:nonzero;stroke:#ffffff;stroke-width:65.77263641;stroke-linecap:butt;stroke-linejoin:round;stroke-miterlimit:4;stroke-dasharray:none;stroke-dashoffset:0;stroke-opacity:1;color-rendering:auto;image-rendering:auto;shape-rendering:auto;text-rendering:auto;enable-background:accumulate" />
</svg>
